{"title":"A.Haunted.House.2.2014.WEBRip.CAM.AUDIO-FANTA","uid":10500023,"size":1395718786,"categoryP":"video","categoryS":"movies","magnet":"?xt=urn:btih:78ce174851cfe9af5cfef037f228a4f0615a4747&amp;dn=A.Haunted.House.2.2014.WEBRip.CAM.AUDIO-FANTA&amp;tr=udp%3A%2F%2Ftracker.openbittorrent.com%3A80&amp;tr=udp%3A%2F%2Fopen.demonii.com%3A1337&amp;tr=udp%3A%2F%2Ftracker.coppersurfer.tk%3A6969&amp;tr=udp%3A%2F%2Fexodus.desync.com%3A6969","seeders":2,"leechers":0,"uploader":".BONE.","files":3,"time":1404681953,"description":"Comedy | Horror\n\n\nDirector:\nMichael Tiddes\n\nWriters:\nMarlon Wayans, Rick Alvarez\n\nCast:\nMarlon Wayans ... Malcolm\nJaime Pressly ... Megan\nEssence Atkins ... Kisha\nGabriel Iglesias ... Miguel\nMissi Pyle ... Noreen\nAshley Rickards ... Becky\nAffion Crockett ... Ray Ray\nSteele Stebbins ... Wyatt\nRick Overton ... Professor Wilde\nHayes MacArthur ... Ned\nDave Sheridan ... Agouhl\nCedric the Entertainer ... Father Williams\nKurt Carley ... Dr. Rousch\nTom Virtue ... Father Callahan\nKym Whitley ... Church Lady\n\nStoryline:\nAfter losing his beloved Kisha in a car accident, Malcolm starts anew, by remarrying Megan, a mother of two. When things begin to get back into their paranormal ways, targeting both the children and the property, things complicate even more when his back-to-life Kisha moves into the neighborhood.\n &lt;a href=&quot;\nhttp://s12.postimg.org/pzvo3jqjx/A_Haunted_House_2_2014_WEBRip_CAM_AUDIO_FANTA_av.jpg&quot; rel=&quot;nofollow&quot; target=&quot;_NEW&quot;&gt;\nhttp://s12.postimg.org/pzvo3jqjx/A_Haunted_House_2_2014_WEBRip_CAM_AUDIO_FANTA_av.jpg&lt;/a&gt;\n\nNFO:\nFormat : AVI\nFormat/Info : Audio Video Interleave\nFormat profile : OpenDML\nFormat settings : rec\nFile size : 1.26 GiB\nDuration : 1h 16mn\nOverall bit rate : 2 369 Kbps\nWriting application : AVI-Mux GUI 1.17.8.3, Feb 16 201019:42:50\n\nVideo\nID : 0\nFormat : MPEG-4 Visual\nFormat profile : Advanced Simple@L5\nFormat settings, BVOP : 2\nFormat settings, QPel : No\nFormat settings, GMC : No warppoints\nFormat settings, Matrix : Custom\nCodec ID : XVID\nCodec ID/Hint : XviD\nDuration : 1h 16mn\nBit rate : 2 172 Kbps\nWidth : 720 pixels\nHeight : 400 pixels\nDisplay aspect ratio : 16:9\nFrame rate : 25.000 fps\nColor space : YUV\nChroma subsampling : 4:2:0\nBit depth : 8 bits\nScan type : Progressive\nCompression mode : Lossy\nBits/(Pixel*Frame) : 0.302\nStream size : 1.16 GiB (92%)\nWriting library : XviD 1.2.1 (UTC 2008-12-04)\n\nAudio\nID : 1\nFormat : AC-3\nFormat/Info : Audio Coding 3\nMode extension : CM (complete main)\nFormat settings, Endianness : Big\nCodec ID : 2000\nDuration : 1h 16mn\nBit rate mode : Constant\nBit rate : 192 Kbps\nChannel(s) : 2 channels\nChannel positions : Front: L R\nSampling rate : 48.0 KHz\nBit depth : 16 bits\nCompression mode : Lossy\nStream size : 105 MiB (8%)\nAlignment : Aligned on interleaves\nInterleave, duration : 64 ms (1.60 video frames)\nInterleave, preload duration : 192 ms\nTitle : Audio","torrent":{"xt":"urn:btih:78ce174851cfe9af5cfef037f228a4f0615a4747","amp;dn":"A.Haunted.House.2.2014.WEBRip.CAM.AUDIO-FANTA","amp;tr":["udp%3A%2F%2Ftracker.openbittorrent.com%3A80","udp%3A%2F%2Fopen.demonii.com%3A1337","udp%3A%2F%2Ftracker.coppersurfer.tk%3A6969","udp%3A%2F%2Fexodus.desync.com%3A6969"],"infoHash":"78ce174851cfe9af5cfef037f228a4f0615a4747","infoHashBuffer":{"type":"Buffer","data":[120,206,23,72,81,207,233,175,92,254,240,55,242,40,164,240,97,90,71,71]},"announce":[],"urlList":[]}}